<?xml version="1.0" encoding="UTF-8"?>
<svg id="Layer_1" xmlns="http://www.w3.org/2000/svg" version="1.1" viewBox="0 0 566.93 566.93">
  <!-- Generator: Adobe Illustrator 29.5.1, SVG Export Plug-In . SVG Version: 2.1.0 Build 141)  -->
  <defs>
    <style>
      .st0 {
        fill: #cd5d48;
      }

      .st1 {
        fill: #f7ecdd;
      }

      .st2 {
        fill: #272525;
      }
    </style>
  </defs>
  <rect class="st1" width="566.93" height="566.93"/>
  <g>
    <g>
      <path class="st2" d="M157.54,302.37c-1.67-5.41-3.56-9.15-5.67-11.21s-4.57-3.1-7.39-3.1h-5.14v17.54h2.84c2.55,0,4.52-.74,5.9-2.21,1.38-1.47,2.08-3.35,2.08-5.64h1.32l-.07,4.49c-.09,2.29-.13,3.89-.13,4.81l.07,4.95c.09,2.37.13,4.18.13,5.41h-1.32c0-2.59-.68-4.66-2.04-6.2-1.36-1.54-3.34-2.31-5.94-2.31h-2.84v10.62c0,3.25.59,5.88,1.78,7.88,1.19,2,3.3,3,6.33,3v1.32c-1.5,0-2.81-.02-3.96-.07s-2.11-.09-2.9-.13c-2.29-.13-4.57-.2-6.86-.2s-4.38.07-6.53.2c-.75.04-1.66.09-2.74.13s-2.34.07-3.79.07v-1.32c2.42,0,4.15-1.01,5.21-3.03s1.58-4.64,1.58-7.85v-22.55c0-3.21-.53-5.83-1.58-7.85s-2.79-3.03-5.21-3.03v-1.32h26.78c4.44,0,7.85-.26,10.22-.79.18,2.51.4,5.08.66,7.72l1.19,10.68h-1.98Z"/>
      <path class="st2" d="M179.04,296.96c0-3.3-.49-5.92-1.48-7.88s-2.74-2.96-5.24-3v-1.32l7.19.2c2.64.13,4.62.2,5.94.2s3.3-.07,5.94-.2l6.79-.2v1.32c-2.2.04-3.87,1.08-5.01,3.1s-1.71,4.62-1.71,7.78v19.39c0,4.26.66,7.33,1.98,9.2,1.32,1.87,3.56,2.8,6.73,2.8s5.55-.81,7.02-2.44,2.21-4.44,2.21-8.44v-14.71c0-5.36-.52-9.45-1.55-12.27s-3.02-4.31-5.97-4.48v-1.32c1.5,0,2.95.07,4.35.2.48.04,1.17.09,2.04.13.88.04,1.69.07,2.44.07,1.01,0,1.93-.02,2.77-.07.83-.04,1.58-.09,2.24-.13,1.71-.13,3.34-.2,4.88-.2v1.32c-5.01.31-7.52,5.87-7.52,16.68v15.17c0,4.97-1.25,8.63-3.76,10.98-2.51,2.35-6.2,3.53-11.08,3.53-12.79,0-19.19-4.86-19.19-14.57v-20.84Z"/>
      <path class="st2" d="M271.43,324.79c-.26,2.64-.48,5.21-.66,7.72-2.37-.53-5.78-.79-10.22-.79h-26.91v-1.32c2.42,0,4.15-1.01,5.21-3.03s1.58-4.64,1.58-7.85v-22.55c0-3.21-.53-5.83-1.58-7.85s-2.79-3.03-5.21-3.03v-1.32h26.12c4.44,0,7.85-.26,10.22-.79.18,2.51.4,5.08.66,7.72.44,4.22.84,7.56,1.19,10.02h-1.98c-1.67-5.14-3.56-8.71-5.67-10.68s-4.57-2.97-7.39-2.97h-6.59c.57,0,1.07.93,1.48,2.8.42,1.87.63,3.77.63,5.71v9.04h2.18c2.55,0,4.52-.74,5.9-2.21,1.38-1.47,2.08-3.35,2.08-5.64h1.32l-.07,4.49c-.09,2.29-.13,3.89-.13,4.81l.07,4.95c.09,2.37.13,4.18.13,5.41h-1.32c0-2.59-.68-4.66-2.04-6.2-1.36-1.54-3.34-2.31-5.94-2.31h-2.18v19.52h6.07c2.46,0,4.73-1.04,6.79-3.13,2.07-2.09,3.89-5.81,5.47-11.18h1.98l-1.19,10.68Z"/>
      <path class="st2" d="M337.38,330.13v1.25c-.97.66-3.36.99-7.19.99-3.38,0-6.02-.7-7.91-2.11-1.89-1.41-3.21-3.09-3.96-5.04-.75-1.96-1.43-4.45-2.04-7.49-.35-1.93-.7-3.45-1.05-4.55-.35-1.1-.86-2.01-1.52-2.74-.66-.73-1.54-1.09-2.64-1.09h-3.63v10.16c0,3.17.36,5.8,1.09,7.91s1.95,3.1,3.66,2.97v1.32l-4.35-.13c-3.17-.18-5.39-.26-6.66-.26s-2.49.02-3.66.07c-1.17.04-2.21.09-3.13.13-2.2.13-4.07.2-5.61.2v-1.32c2.42,0,4.15-1.01,5.21-3.03,1.05-2.02,1.58-4.64,1.58-7.85v-22.55c0-3.21-.53-5.83-1.58-7.85-1.06-2.02-2.79-3.03-5.21-3.03v-1.32h25.72c5.1,0,8.87.91,11.31,2.74,2.44,1.83,3.66,4.85,3.66,9.07,0,3.21-.89,5.63-2.67,7.25-1.78,1.63-4.56,2.62-8.34,2.97,2.29.22,4.12,1,5.51,2.34,1.38,1.34,2.44,2.9,3.17,4.68.73,1.78,1.48,4.1,2.28,6.96.66,2.29,1.22,4.06,1.68,5.31s1.1,2.3,1.91,3.13c.81.83,1.84,1.25,3.07,1.25.26,0,.53-.03.79-.1.26-.07.44-.14.53-.23ZM315.52,303.88c.94-1.45,1.42-3.78,1.42-6.99s-.52-5.32-1.55-6.73c-1.03-1.41-2.56-2.11-4.58-2.11h-5.54c.97,0,1.57.69,1.81,2.08.24,1.38.36,3.18.36,5.37v10.55h3.36c2.2,0,3.77-.73,4.72-2.18Z"/>
      <path class="st2" d="M384.92,320.77l-.46,4.02c-.26,2.64-.48,5.21-.66,7.72-2.37-.53-5.78-.79-10.22-.79h-22.69l-.46-2.04,21.04-41.61h-5.47c-2.81,0-5.28.99-7.39,2.97s-4,5.54-5.67,10.68h-1.98c.18-1.14.32-2.24.43-3.3.11-1.06.21-1.98.3-2.77l.46-3.96c.26-2.64.48-5.21.66-7.72,2.37.53,5.78.79,10.22.79h21.3l.59,2.31-20.91,41.35h7.39c2.46,0,4.73-1.04,6.79-3.13,2.07-2.09,3.89-5.81,5.47-11.18h1.98c-.04,1.06-.29,3.28-.73,6.66Z"/>
      <path class="st2" d="M442.83,327.72c1.36,1.91,2.95,2.8,4.75,2.67v1.32c-1.45,0-3.23-.07-5.34-.2-.88-.04-1.92-.09-3.13-.13s-2.45-.07-3.73-.07c-1.5,0-4,.09-7.52.26l-4.75.13v-1.32c1.28,0,2.31-.44,3.1-1.32.79-.88,1.19-2.18,1.19-3.89,0-1.36-.29-2.97-.86-4.81l-1.12-3.63c-1.93.57-3.8.86-5.61.86-1.23,0-2.38-.11-3.46-.33s-2.3-.53-3.66-.92l-.26.86c-.62,1.85-.92,3.63-.92,5.34,0,2.46.66,4.39,1.98,5.77,1.32,1.38,3.1,2.08,5.34,2.08v1.32c-1.5,0-3.83-.09-6.99-.26l-4.29-.13c-.88,0-2.15.07-3.83.2-.84.04-1.7.09-2.61.13s-1.77.07-2.6.07v-1.32c1.93.04,3.81-1.13,5.64-3.53,1.82-2.4,3.4-5.62,4.71-9.66l10.82-33.11h7.52l12.07,36.27c1.01,2.99,2.2,5.44,3.56,7.35ZM419.15,296.76l-5.47,16.69c2.07.66,4.11.99,6.13.99,1.36,0,2.92-.2,4.68-.59l-5.34-17.08Z"/>
    </g>
    <g>
      <path class="st0" d="M136.05,351.35c-.17.38-.25.9-.25,1.54v4.37c0,.65.08,1.16.25,1.54.17.38.48.57.95.57v.26c-.29,0-.64-.01-1.04-.04-.15,0-.34-.02-.56-.03-.22,0-.45-.01-.68-.01-.32,0-.72.01-1.18.04-.19,0-.39.02-.59.03-.21,0-.42.01-.62.01v-.26c.44,0,.75-.2.91-.59.17-.39.25-.9.25-1.52v-5.33l-2.39,6.8h-.74l-2.33-6.34v3.98c0,.96.13,1.68.4,2.18.27.5.71.77,1.31.82v.26c-.19,0-.39,0-.6-.02-.21-.01-.37-.02-.46-.02-.31-.03-.61-.04-.91-.04-.2,0-.38,0-.54.01-.16,0-.31.02-.43.03-.33.03-.65.04-.95.04v-.26c.48-.03.84-.31,1.09-.84.25-.52.37-1.25.37-2.17v-3.48c0-.61-.11-1.12-.34-1.52-.23-.4-.6-.6-1.12-.59v-.26c.68.02,1.26.03,1.73.03.73,0,1.49-.01,2.28-.04l1.73,4.72,1.65-4.71c.69.03,1.27.04,1.75.04.52,0,1.19-.01,2.01-.04v.26c-.47,0-.79.19-.95.58Z"/>
      <path class="st0" d="M144.74,359.36v.26c-.29,0-.69-.02-1.21-.04-.52-.02-.94-.03-1.25-.04-.26,0-.63.01-1.1.04-.26,0-.5.02-.74.03s-.44.01-.61.01v-.26c.49,0,.82-.2,1.02-.58.19-.38.29-.89.29-1.53v-4.37c0-.64-.1-1.15-.3-1.54-.2-.38-.53-.58-1-.58v-.26l2.46.08c.33,0,.74-.01,1.21-.04.2,0,.42-.02.63-.03.22,0,.42-.01.62-.01v.26c-.87,0-1.3.71-1.3,2.11v4.37c0,1.4.43,2.1,1.3,2.11ZM144.74,359.62h.01-.01Z"/>
      <path class="st0" d="M153.92,358.79c-.56.64-1.4.95-2.52.95-.76,0-1.43-.17-2-.52-.58-.35-1.03-.87-1.36-1.57s-.49-1.58-.49-2.62.17-1.91.52-2.6c.35-.7.83-1.21,1.44-1.55.61-.34,1.31-.51,2.09-.51.65,0,1.18.19,1.59.58l1.1-.58h.28c.02.97.04,1.7.06,2.19.05.89.1,1.55.14,2h-.45c-.23-.78-.45-1.41-.65-1.88s-.45-.83-.72-1.08c-.28-.25-.61-.38-.99-.38-1.29,0-1.93,1.27-1.93,3.81s.67,3.89,2.02,3.89c.38,0,.74-.1,1.06-.31.32-.21.57-.54.75-.98.18-.45.25-1.02.21-1.71h.64c.03,1.28-.23,2.24-.79,2.87Z"/>
      <path class="st0" d="M167.22,359.31v.24c-.19.13-.65.19-1.39.19-.66,0-1.17-.14-1.53-.41s-.62-.6-.77-.98c-.15-.38-.28-.86-.4-1.45-.07-.38-.14-.67-.2-.88-.07-.21-.17-.39-.29-.53s-.3-.21-.51-.21h-.7v1.97c0,.61.07,1.12.21,1.53s.38.6.71.58v.26l-.84-.03c-.61-.03-1.04-.05-1.29-.05s-.48,0-.71.01c-.23,0-.43.02-.61.03-.43.03-.79.04-1.09.04v-.26c.47,0,.81-.2,1.01-.59.2-.39.31-.9.31-1.52v-4.37c0-.62-.1-1.13-.31-1.52-.2-.39-.54-.59-1.01-.59v-.26h4.99c.99,0,1.72.18,2.19.53.47.35.71.94.71,1.76,0,.62-.17,1.09-.52,1.41s-.88.51-1.62.58c.44.04.8.19,1.07.45.27.26.47.56.61.91.14.35.29.79.44,1.35.13.44.24.79.33,1.03.09.24.21.45.37.61.16.16.36.24.59.24.05,0,.1,0,.15-.02.05-.01.09-.03.1-.04ZM162.98,354.22c.18-.28.27-.73.27-1.35s-.1-1.03-.3-1.3c-.2-.27-.5-.41-.89-.41h-1.07c.19,0,.3.13.35.4s.07.62.07,1.04v2.05h.65c.43,0,.73-.14.91-.42Z"/>
      <path class="st0" d="M169.75,357.66c-.34-.7-.51-1.58-.51-2.62s.17-1.91.51-2.6c.34-.7.81-1.21,1.41-1.55.6-.34,1.29-.51,2.07-.51s1.45.17,2.05.51c.6.34,1.07.85,1.42,1.55.35.7.52,1.56.52,2.6s-.17,1.9-.52,2.61c-.35.71-.82,1.23-1.43,1.58-.6.34-1.28.52-2.04.52s-1.48-.17-2.07-.52c-.6-.35-1.07-.87-1.41-1.57ZM174.73,355.04c0-1.33-.12-2.32-.37-2.97-.25-.65-.63-.97-1.14-.97s-.9.32-1.15.97c-.25.65-.37,1.64-.37,2.97s.12,2.33.37,2.99c.25.67.63,1,1.15,1s.89-.33,1.14-1c.25-.67.37-1.66.37-2.99Z"/>
      <path class="st0" d="M185.37,356.44v-.77h4.03v.77h-4.03Z"/>
      <path class="st0" d="M198.07,357.66c-.34-.7-.51-1.58-.51-2.62s.17-1.91.51-2.6c.34-.7.81-1.21,1.41-1.55.6-.34,1.29-.51,2.07-.51s1.45.17,2.05.51c.6.34,1.07.85,1.42,1.55.35.7.52,1.56.52,2.6s-.17,1.9-.52,2.61c-.35.71-.82,1.23-1.43,1.58-.6.34-1.28.52-2.04.52s-1.48-.17-2.07-.52c-.6-.35-1.07-.87-1.41-1.57ZM203.05,355.04c0-1.33-.12-2.32-.37-2.97-.25-.65-.63-.97-1.14-.97s-.9.32-1.15.97c-.25.65-.37,1.64-.37,2.97s.12,2.33.37,2.99c.25.67.63,1,1.15,1s.89-.33,1.14-1c.25-.67.37-1.66.37-2.99Z"/>
      <path class="st0" d="M216.62,357.09c0,.9-.25,1.54-.76,1.94-.51.4-1.31.59-2.41.59h-5.13v-.26c.47,0,.81-.2,1.01-.59.2-.39.31-.9.31-1.52v-4.37c0-.62-.1-1.13-.31-1.52-.2-.39-.54-.59-1.01-.59v-.26h5.13c.67,0,1.2.07,1.6.21.4.14.7.37.89.7.19.33.29.79.29,1.39,0,.56-.13,1-.4,1.32-.26.32-.67.53-1.2.62.67.07,1.16.29,1.5.67s.5.93.5,1.67ZM211.82,351.7c.08.36.12.73.12,1.11v1.84h.79c.43,0,.73-.14.91-.42.18-.28.27-.73.27-1.35s-.1-1.03-.3-1.3c-.2-.27-.5-.41-.89-.41h-1.2c.11,0,.21.18.29.54ZM214.25,357.13c0-.63-.12-1.1-.35-1.39-.23-.3-.62-.45-1.17-.45h-.79v3.7h.79c1.01,0,1.52-.62,1.52-1.85Z"/>
      <path class="st0" d="M228.89,359.31v.24c-.19.13-.65.19-1.39.19-.66,0-1.17-.14-1.53-.41s-.62-.6-.77-.98c-.15-.38-.28-.86-.4-1.45-.07-.38-.14-.67-.2-.88-.07-.21-.17-.39-.29-.53s-.3-.21-.51-.21h-.7v1.97c0,.61.07,1.12.21,1.53s.38.6.71.58v.26l-.84-.03c-.61-.03-1.04-.05-1.29-.05s-.48,0-.71.01c-.23,0-.43.02-.61.03-.43.03-.79.04-1.09.04v-.26c.47,0,.81-.2,1.01-.59.2-.39.31-.9.31-1.52v-4.37c0-.62-.1-1.13-.31-1.52-.2-.39-.54-.59-1.01-.59v-.26h4.99c.99,0,1.72.18,2.19.53.47.35.71.94.71,1.76,0,.62-.17,1.09-.52,1.41s-.88.51-1.62.58c.44.04.8.19,1.07.45.27.26.47.56.61.91.14.35.29.79.44,1.35.13.44.24.79.33,1.03.09.24.21.45.37.61.16.16.36.24.59.24.05,0,.1,0,.15-.02.05-.01.09-.03.1-.04ZM224.65,354.22c.18-.28.27-.73.27-1.35s-.1-1.03-.3-1.3c-.2-.27-.5-.41-.89-.41h-1.07c.19,0,.3.13.35.4s.07.62.07,1.04v2.05h.65c.43,0,.73-.14.91-.42Z"/>
      <path class="st0" d="M239.61,358.85c.26.37.57.54.92.52v.26c-.28,0-.63-.01-1.04-.04-.17,0-.37-.02-.61-.03-.23,0-.48-.01-.72-.01-.29,0-.78.02-1.46.05l-.92.03v-.26c.25,0,.45-.08.6-.26.15-.17.23-.42.23-.75,0-.26-.06-.58-.17-.93l-.22-.7c-.38.11-.74.17-1.09.17-.24,0-.46-.02-.67-.06-.21-.04-.45-.1-.71-.18l-.05.17c-.12.36-.18.7-.18,1.04,0,.48.13.85.38,1.12s.6.4,1.04.4v.26c-.29,0-.74-.02-1.36-.05l-.83-.03c-.17,0-.42.01-.74.04-.16,0-.33.02-.5.03s-.34.01-.51.01v-.26c.38,0,.74-.22,1.09-.68.35-.46.66-1.09.91-1.87l2.1-6.42h1.46l2.34,7.03c.2.58.43,1.05.69,1.43ZM235.02,352.84l-1.06,3.24c.4.13.8.19,1.19.19.26,0,.57-.04.91-.11l-1.04-3.31Z"/>
      <path class="st0" d="M251.66,355.04c0,1.55-.35,2.7-1.04,3.45s-1.66,1.12-2.92,1.12h-4.68v-.26c.47,0,.81-.2,1.01-.59.2-.39.31-.9.31-1.52v-4.37c0-.62-.1-1.13-.31-1.52-.2-.39-.54-.59-1.01-.59v-.26h4.68c1.25,0,2.23.37,2.92,1.1.69.73,1.04,1.88,1.04,3.43ZM248.8,357.99c.29-.66.43-1.64.43-2.95s-.14-2.27-.42-2.92c-.28-.65-.69-.97-1.23-.97h-1.34c.11,0,.21.18.29.54s.12.73.12,1.11v6.18h.93c.53,0,.94-.33,1.22-.99Z"/>
      <path class="st0" d="M255.45,357.66c-.34-.7-.51-1.58-.51-2.62s.17-1.91.51-2.6c.34-.7.81-1.21,1.41-1.55.6-.34,1.29-.51,2.07-.51s1.45.17,2.05.51c.6.34,1.07.85,1.42,1.55.35.7.52,1.56.52,2.6s-.17,1.9-.52,2.61c-.35.71-.82,1.23-1.43,1.58-.6.34-1.28.52-2.04.52s-1.48-.17-2.07-.52c-.6-.35-1.07-.87-1.41-1.57ZM260.43,355.04c0-1.33-.12-2.32-.37-2.97-.25-.65-.63-.97-1.14-.97s-.9.32-1.15.97c-.25.65-.37,1.64-.37,2.97s.12,2.33.37,2.99c.25.67.63,1,1.15,1s.89-.33,1.14-1c.25-.67.37-1.66.37-2.99Z"/>
      <path class="st0" d="M275.12,359.31v.24c-.19.13-.65.19-1.39.19-.66,0-1.17-.14-1.53-.41s-.62-.6-.77-.98c-.15-.38-.28-.86-.4-1.45-.07-.38-.14-.67-.2-.88-.07-.21-.17-.39-.29-.53s-.3-.21-.51-.21h-.7v1.97c0,.61.07,1.12.21,1.53s.38.6.71.58v.26l-.84-.03c-.61-.03-1.04-.05-1.29-.05s-.48,0-.71.01c-.23,0-.43.02-.61.03-.43.03-.79.04-1.09.04v-.26c.47,0,.81-.2,1.01-.59.2-.39.31-.9.31-1.52v-4.37c0-.62-.1-1.13-.31-1.52-.2-.39-.54-.59-1.01-.59v-.26h4.99c.99,0,1.72.18,2.19.53.47.35.71.94.71,1.76,0,.62-.17,1.09-.52,1.41s-.88.51-1.62.58c.44.04.8.19,1.07.45.27.26.47.56.61.91.14.35.29.79.44,1.35.13.44.24.79.33,1.03.09.24.21.45.37.61.16.16.36.24.59.24.05,0,.1,0,.15-.02.05-.01.09-.03.1-.04ZM270.88,354.22c.18-.28.27-.73.27-1.35s-.1-1.03-.3-1.3c-.2-.27-.5-.41-.89-.41h-1.07c.19,0,.3.13.35.4s.07.62.07,1.04v2.05h.65c.43,0,.73-.14.91-.42Z"/>
      <path class="st0" d="M290.78,355.04c0,1.55-.35,2.7-1.04,3.45s-1.66,1.12-2.92,1.12h-4.68v-.26c.47,0,.81-.2,1.01-.59.2-.39.31-.9.31-1.52v-4.37c0-.62-.1-1.13-.31-1.52-.2-.39-.54-.59-1.01-.59v-.26h4.68c1.25,0,2.22.37,2.92,1.1.69.73,1.04,1.88,1.04,3.43ZM287.93,357.99c.29-.66.43-1.64.43-2.95s-.14-2.27-.42-2.92-.69-.97-1.23-.97h-1.34c.11,0,.21.18.29.54.08.36.12.73.12,1.11v6.18h.93c.53,0,.94-.33,1.22-.99Z"/>
      <path class="st0" d="M300.9,358.28c-.05.51-.09,1.01-.13,1.5-.46-.1-1.12-.15-1.98-.15h-5.22v-.26c.47,0,.81-.2,1.01-.59.21-.39.31-.9.31-1.52v-4.37c0-.62-.1-1.13-.31-1.52-.2-.39-.54-.59-1.01-.59v-.26h5.06c.86,0,1.52-.05,1.98-.15.03.49.08.98.13,1.5.09.82.16,1.47.23,1.94h-.38c-.32-1-.69-1.69-1.1-2.07s-.89-.58-1.43-.58h-1.28c.11,0,.21.18.29.54s.12.73.12,1.11v1.75h.42c.5,0,.88-.14,1.14-.43.27-.29.4-.65.4-1.09h.26v.87c-.03.44-.04.75-.04.93v.96c.03.46.04.81.04,1.05h-.26c0-.5-.13-.9-.4-1.2-.26-.3-.65-.45-1.15-.45h-.42v3.78h1.18c.48,0,.92-.2,1.32-.61.4-.4.75-1.13,1.06-2.17h.38l-.23,2.07Z"/>
      <path class="st0" d="M319.04,351.35c-.17.38-.25.9-.25,1.54v4.37c0,.65.08,1.16.25,1.54.17.38.48.57.95.57v.26c-.29,0-.64-.01-1.04-.04-.15,0-.34-.02-.56-.03-.22,0-.45-.01-.68-.01-.32,0-.72.01-1.18.04-.19,0-.39.02-.59.03-.21,0-.42.01-.62.01v-.26c.44,0,.75-.2.92-.59.17-.39.25-.9.25-1.52v-5.33l-2.39,6.8h-.74l-2.33-6.34v3.98c0,.96.13,1.68.4,2.18.27.5.71.77,1.31.82v.26c-.19,0-.39,0-.6-.02s-.37-.02-.46-.02c-.31-.03-.61-.04-.91-.04-.2,0-.38,0-.54.01-.16,0-.31.02-.43.03-.33.03-.65.04-.95.04v-.26c.48-.03.84-.31,1.09-.84.25-.52.37-1.25.37-2.17v-3.48c0-.61-.11-1.12-.34-1.52-.23-.4-.6-.6-1.12-.59v-.26c.68.02,1.26.03,1.73.03.73,0,1.49-.01,2.28-.04l1.73,4.72,1.65-4.71c.69.03,1.27.04,1.75.04.52,0,1.19-.01,2.01-.04v.26c-.47,0-.79.19-.95.58Z"/>
      <path class="st0" d="M331.09,358.85c.26.37.57.54.92.52v.26c-.28,0-.63-.01-1.04-.04-.17,0-.37-.02-.61-.03-.23,0-.48-.01-.72-.01-.29,0-.78.02-1.46.05l-.92.03v-.26c.25,0,.45-.08.6-.26.15-.17.23-.42.23-.75,0-.26-.06-.58-.17-.93l-.22-.7c-.38.11-.74.17-1.09.17-.24,0-.46-.02-.67-.06-.21-.04-.45-.1-.71-.18l-.05.17c-.12.36-.18.7-.18,1.04,0,.48.13.85.38,1.12s.6.4,1.04.4v.26c-.29,0-.74-.02-1.35-.05l-.83-.03c-.17,0-.42.01-.74.04-.16,0-.33.02-.5.03s-.34.01-.5.01v-.26c.38,0,.74-.22,1.09-.68.35-.46.66-1.09.91-1.87l2.1-6.42h1.46l2.34,7.03c.2.58.43,1.05.69,1.43ZM326.5,352.84l-1.06,3.24c.4.13.8.19,1.19.19.26,0,.57-.04.91-.11l-1.04-3.31Z"/>
      <path class="st0" d="M340.58,355.38c.27.39.41.87.41,1.44s-.13,1.1-.38,1.55c-.25.44-.59.78-1.02,1.02-.43.24-.91.36-1.44.36-.76,0-1.43-.25-2.02-.74l-.91.74h-.24l-.14-1.73-.1-1.14c0-.11-.02-.25-.04-.41-.02-.16-.03-.36-.05-.6h.41c.32.8.73,1.53,1.25,2.18.52.65,1.1.98,1.74.98.83,0,1.24-.38,1.24-1.13,0-.33-.09-.61-.27-.84-.18-.23-.42-.42-.72-.57-.3-.15-.71-.34-1.24-.55-.81-.32-1.4-.71-1.78-1.16-.38-.45-.57-.98-.57-1.6,0-.54.12-1.02.36-1.45.24-.43.58-.76,1.01-1s.92-.36,1.46-.36c.67,0,1.25.17,1.73.52l.83-.52h.23l.15,1.61c.05.56.11,1.18.19,1.87h-.28c-.31-.69-.58-1.23-.81-1.6-.23-.38-.51-.67-.82-.88-.31-.21-.69-.31-1.14-.31-.43,0-.75.09-.97.28s-.33.46-.33.83c0,.32.15.59.45.81.3.22.76.46,1.39.74.58.26,1.06.5,1.43.73s.7.54.97.93Z"/>
      <path class="st0" d="M351.81,358.85c.26.37.57.54.92.52v.26c-.28,0-.63-.01-1.04-.04-.17,0-.37-.02-.61-.03-.23,0-.48-.01-.72-.01-.29,0-.78.02-1.46.05l-.92.03v-.26c.25,0,.45-.08.6-.26.15-.17.23-.42.23-.75,0-.26-.06-.58-.17-.93l-.22-.7c-.38.11-.74.17-1.09.17-.24,0-.46-.02-.67-.06-.21-.04-.45-.1-.71-.18l-.05.17c-.12.36-.18.7-.18,1.04,0,.48.13.85.38,1.12s.6.4,1.04.4v.26c-.29,0-.74-.02-1.36-.05l-.83-.03c-.17,0-.42.01-.74.04-.16,0-.33.02-.5.03s-.34.01-.5.01v-.26c.38,0,.74-.22,1.09-.68.35-.46.66-1.09.91-1.87l2.1-6.42h1.46l2.34,7.03c.2.58.43,1.05.69,1.43ZM347.22,352.84l-1.06,3.24c.4.13.8.19,1.19.19.26,0,.57-.04.91-.11l-1.04-3.31Z"/>
      <path class="st0" d="M370.02,351.35c-.17.38-.25.9-.25,1.54v4.37c0,.65.08,1.16.25,1.54.17.38.48.57.95.57v.26c-.29,0-.64-.01-1.04-.04-.15,0-.34-.02-.56-.03-.22,0-.45-.01-.68-.01-.32,0-.72.01-1.18.04-.19,0-.39.02-.59.03s-.42.01-.62.01v-.26c.44,0,.75-.2.92-.59.17-.39.25-.9.25-1.52v-5.33l-2.39,6.8h-.74l-2.33-6.34v3.98c0,.96.13,1.68.4,2.18.27.5.71.77,1.31.82v.26c-.19,0-.39,0-.6-.02s-.37-.02-.46-.02c-.31-.03-.61-.04-.91-.04-.2,0-.38,0-.54.01-.16,0-.31.02-.43.03-.33.03-.65.04-.95.04v-.26c.48-.03.84-.31,1.09-.84.25-.52.37-1.25.37-2.17v-3.48c0-.61-.11-1.12-.34-1.52-.23-.4-.6-.6-1.12-.59v-.26c.68.02,1.26.03,1.73.03.73,0,1.49-.01,2.28-.04l1.73,4.72,1.65-4.71c.69.03,1.27.04,1.75.04.52,0,1.19-.01,2.01-.04v.26c-.47,0-.79.19-.95.58Z"/>
      <path class="st0" d="M382.07,358.85c.26.37.57.54.92.52v.26c-.28,0-.63-.01-1.04-.04-.17,0-.37-.02-.61-.03-.23,0-.48-.01-.72-.01-.29,0-.78.02-1.46.05l-.92.03v-.26c.25,0,.45-.08.6-.26.15-.17.23-.42.23-.75,0-.26-.06-.58-.17-.93l-.22-.7c-.38.11-.74.17-1.09.17-.24,0-.46-.02-.67-.06-.21-.04-.45-.1-.71-.18l-.05.17c-.12.36-.18.7-.18,1.04,0,.48.13.85.38,1.12s.6.4,1.04.4v.26c-.29,0-.74-.02-1.36-.05l-.83-.03c-.17,0-.42.01-.74.04-.16,0-.33.02-.5.03s-.34.01-.5.01v-.26c.38,0,.74-.22,1.09-.68.35-.46.66-1.09.91-1.87l2.1-6.42h1.46l2.34,7.03c.2.58.43,1.05.69,1.43ZM377.48,352.84l-1.06,3.24c.4.13.8.19,1.19.19.26,0,.57-.04.91-.11l-1.04-3.31Z"/>
      <path class="st0" d="M394.12,355.04c0,1.55-.34,2.7-1.04,3.45s-1.66,1.12-2.92,1.12h-4.68v-.26c.47,0,.81-.2,1.01-.59.21-.39.31-.9.31-1.52v-4.37c0-.62-.1-1.13-.31-1.52-.2-.39-.54-.59-1.01-.59v-.26h4.68c1.25,0,2.23.37,2.92,1.1.69.73,1.04,1.88,1.04,3.43ZM391.27,357.99c.29-.66.43-1.64.43-2.95s-.14-2.27-.42-2.92-.69-.97-1.23-.97h-1.34c.11,0,.21.18.29.54s.12.73.12,1.11v6.18h.93c.53,0,.94-.33,1.22-.99Z"/>
      <path class="st0" d="M406.33,359.31v.24c-.19.13-.65.19-1.39.19-.66,0-1.17-.14-1.53-.41-.37-.27-.62-.6-.77-.98-.15-.38-.28-.86-.4-1.45-.07-.38-.14-.67-.21-.88-.07-.21-.17-.39-.29-.53s-.3-.21-.51-.21h-.7v1.97c0,.61.07,1.12.21,1.53s.38.6.71.58v.26l-.84-.03c-.61-.03-1.04-.05-1.29-.05s-.48,0-.71.01c-.23,0-.43.02-.61.03-.43.03-.79.04-1.09.04v-.26c.47,0,.81-.2,1.01-.59.21-.39.31-.9.31-1.52v-4.37c0-.62-.1-1.13-.31-1.52-.2-.39-.54-.59-1.01-.59v-.26h4.99c.99,0,1.72.18,2.19.53.47.35.71.94.71,1.76,0,.62-.17,1.09-.52,1.41-.34.32-.88.51-1.62.58.44.04.8.19,1.07.45.27.26.47.56.61.91.14.35.29.79.44,1.35.13.44.24.79.33,1.03.09.24.21.45.37.61.16.16.36.24.59.24.05,0,.1,0,.15-.02.05-.01.09-.03.1-.04ZM402.09,354.22c.18-.28.28-.73.28-1.35s-.1-1.03-.3-1.3-.5-.41-.89-.41h-1.07c.19,0,.3.13.35.4s.07.62.07,1.04v2.05h.65c.43,0,.73-.14.91-.42Z"/>
      <path class="st0" d="M415.96,358.28c-.05.51-.09,1.01-.13,1.5-.46-.1-1.12-.15-1.98-.15h-5.22v-.26c.47,0,.81-.2,1.01-.59.21-.39.31-.9.31-1.52v-4.37c0-.62-.1-1.13-.31-1.52-.2-.39-.54-.59-1.01-.59v-.26h5.06c.86,0,1.52-.05,1.98-.15.03.49.08.98.13,1.5.09.82.16,1.47.23,1.94h-.38c-.32-1-.69-1.69-1.1-2.07s-.89-.58-1.43-.58h-1.28c.11,0,.21.18.29.54s.12.73.12,1.11v1.75h.42c.5,0,.88-.14,1.14-.43.27-.29.4-.65.4-1.09h.26v.87c-.03.44-.04.75-.04.93v.96c.03.46.04.81.04,1.05h-.26c0-.5-.13-.9-.4-1.2-.26-.3-.65-.45-1.15-.45h-.42v3.78h1.18c.48,0,.92-.2,1.32-.61.4-.4.75-1.13,1.06-2.17h.38l-.23,2.07Z"/>
    </g>
    <path d="M252.87,223.48c-.47-4.47-2.94-10.81-2.91-15.11.01-1.56.87-1.75,2.43-1.44.73.43.8,1.15,1.04,1.87.95,2.86,2.41,16.62,3.61,17.59.81.66,3.74,1.78,4.93,1.89.55-.51-2.95-12.43-2.83-14.65s2.67-2.23,3.57.73c.8,2.61,2.25,15.61,3.08,16.56l5.27,2.63-2.32-16.22,1.84-.34c2.4,1.17,3.22,14.1,4.05,17.07.7,2.54,3.5,3.08,5.54,4.28l-2.34-16.23c1.44-.74,2.5-.08,3.07,1.37,1.62,4.08,1.39,11.05,2.85,15.35.91,2.67,2.96,2.22,5.04,3.82,0-1.02.08-2.05-.05-3.06-.34-2.64-2.58-9.58-2.36-11.55.12-1.03,1.32-1.78,2.27-1.34.73.25.84.71,1.09,1.34,1.29,3.22,2.14,15.03,3.56,16.56.7.75,3.46,1.89,4.58,1.88.66-.67-2.81-11.7-2.65-13.67s2.26-2.59,3.28-.13c1.26,3.03,2.44,14.6,3.69,15.95.86.93,3.64,1.27,4.78,2.16.13-2.64-3.85-13.13-2.8-14.78l1.54-.46c.7.13,1.24,1.2,1.51,1.83,1,2.36,3.05,14.22,4.08,15.09,3.62,1.35,7.25,2.72,10.92,3.94,2.07.68,12.39,3.33,13.08,4.17,1.2,1.47-.45,3.03-2.06,2.58l-23.15-7.52c-2.45.66-14.51,7.66-16.03,6.92-.46-.22-.98-.93-.98-1.46-.15-2.19,13.3-6.3,12.47-7.42l-5.39-1.84c-3.94,1.55-9.21,5.18-13.27,5.96-1.17.22-1.8.06-2.89-.3-.23-1.3.38-1.67,1.27-2.31,1.66-1.21,10.35-4.4,10.7-4.87-.51-.92-3.95-2.75-4.82-2.63-3.08.41-9.8,5.03-13.39,5.78-1.85.77-4.16-.71-2.4-2.44,1.43-1.41,8.61-3.08,10.73-4.6.28-.2.57-.36.77-.65-.2-.29-.5-.45-.77-.65-.62-.44-3.4-1.82-4.06-1.76-2.64.25-13.57,6.52-15.3,5.76-.79-.35-1.21-1.74-.85-2.55.44-.76,9.61-3.7,11.28-4.75.49-.31.84.03.61-1.07l-4.99-1.92c-2.59.52-12.92,5.89-14.7,5.51-1.5-.32-1.86-1.56-.69-2.66,1.59-1.5,11.37-4.27,11.76-4.77-1.06-1.27-4.23-3-5.86-2.79-2.63.34-13.02,5.86-14.43,5.59l-1.62-1.59c-.18-2.18,9.75-4.64,11.72-5.88.49-.31.84.03.61-1.07l-5.46-1.92c-4,1.26-9.21,4.32-13.2,5.06-2.39.45-2.66-.18-2.35-2.61l11.91-4.38c.24-1.12-.15-.77-.62-1.07-.67-.43-3.3-1.73-3.98-1.8-2.82-.28-10.55,3.78-13.98,4.22-.7.09-1.26.18-1.83-.36-.88-.61-.68-1.9.13-2.47,1.75-1.23,7.61-2.18,10.02-3.27.56-.26.87.23.67-1l-14.02-5.39c-2.46-1.04-1.84-3.52.72-3.16l15.69,6.14-4.09-14.84c.67-.94,1.46-1.35,2.46-.54,1.52,1.25,4.76,14.57,5.73,17.27l5.49,2.41Z"/>
  </g>
</svg>